<mxfile host="Electron" modified="2024-05-23T12:47:11.968Z" agent="Mozilla/5.0 (X11; Linux x86_64) AppleWebKit/537.36 (KHTML, like Gecko) draw.io/24.4.6 Chrome/124.0.6367.207 Electron/30.0.6 Safari/537.36" etag="b41m6x-mLuQKNgk1kX8g" version="24.4.6" type="device">
  <diagram id="C5RBs43oDa-KdzZeNtuy" name="Page-1">
    <mxGraphModel dx="1166" dy="994" grid="1" gridSize="10" guides="1" tooltips="1" connect="1" arrows="1" fold="1" page="1" pageScale="1" pageWidth="827" pageHeight="1169" math="0" shadow="0">
      <root>
        <mxCell id="WIyWlLk6GJQsqaUBKTNV-0" />
        <mxCell id="WIyWlLk6GJQsqaUBKTNV-1" parent="WIyWlLk6GJQsqaUBKTNV-0" />
        <mxCell id="lytf2MHueh0BiMjzY7Cv-1" value="&lt;p style=&quot;margin: 4px 0px 0px; text-align: center; font-size: 14px;&quot;&gt;&lt;font style=&quot;font-size: 14px;&quot;&gt;&lt;i style=&quot;&quot;&gt;&amp;lt;&amp;lt;Interface&amp;gt;&amp;gt;&lt;/i&gt;&lt;br&gt;&lt;b style=&quot;&quot;&gt;Downloader&lt;/b&gt;&lt;/font&gt;&lt;/p&gt;&lt;hr size=&quot;1&quot; style=&quot;border-style: solid; font-size: 14px;&quot;&gt;&lt;p style=&quot;margin: 0px 0px 0px 4px; font-size: 14px;&quot;&gt;&lt;/p&gt;&lt;p style=&quot;margin: 0px 0px 0px 4px; font-size: 14px;&quot;&gt;&lt;font style=&quot;font-size: 14px;&quot;&gt;+ CanHandle(url string) bool&lt;/font&gt;&lt;/p&gt;&lt;p style=&quot;margin: 0px 0px 0px 4px; font-size: 14px;&quot;&gt;&lt;font style=&quot;font-size: 14px;&quot;&gt;+ AnalyzeResourceType(url string) ResourceType&lt;/font&gt;&lt;/p&gt;&lt;p style=&quot;margin: 0px 0px 0px 4px; font-size: 14px;&quot;&gt;&lt;font style=&quot;font-size: 14px;&quot;&gt;+ GetResourceInfos() []ResourceInfo&lt;/font&gt;&lt;/p&gt;&lt;p style=&quot;margin: 0px 0px 0px 4px; font-size: 14px;&quot;&gt;&lt;font style=&quot;font-size: 14px;&quot;&gt;+ Download(index int, path string)&lt;/font&gt;&lt;/p&gt;&lt;p style=&quot;margin: 0px 0px 0px 4px; font-size: 14px;&quot;&gt;&lt;font style=&quot;font-size: 14px;&quot;&gt;+ DownloadAll(path string)&lt;/font&gt;&lt;/p&gt;" style="verticalAlign=top;align=left;overflow=fill;html=1;whiteSpace=wrap;" vertex="1" parent="WIyWlLk6GJQsqaUBKTNV-1">
          <mxGeometry x="90" y="680" width="410" height="190" as="geometry" />
        </mxCell>
        <mxCell id="lytf2MHueh0BiMjzY7Cv-2" value="&lt;h1 style=&quot;text-align: center; margin-top: 0px;&quot;&gt;Scenarios&lt;/h1&gt;&lt;p style=&quot;margin-top: 0px;&quot;&gt;&lt;/p&gt;&lt;ol&gt;&lt;li&gt;&lt;font style=&quot;font-size: 17px;&quot;&gt;Download all images from a web page that matches certain criteria. The web page may contain multiple pages.&lt;/font&gt;&lt;/li&gt;&lt;li&gt;&lt;span style=&quot;font-size: 17px;&quot;&gt;Download a single video. A video URL can contain multiple variations of the same video. Additional parameters are required to determine which format to download. A video may be splitted into multiple parts. After all parts are downloaded, ffmpeg is used to merge / convert the video into a single file.&lt;/span&gt;&lt;/li&gt;&lt;li&gt;&lt;span style=&quot;font-size: 17px;&quot;&gt;Download all videos from a video list.&amp;nbsp;&lt;/span&gt;&lt;span style=&quot;font-size: 17px;&quot;&gt;The web page may contain multiple pages.&lt;/span&gt;&lt;/li&gt;&lt;li&gt;&lt;span style=&quot;font-size: 17px;&quot;&gt;Download a file&lt;/span&gt;&lt;/li&gt;&lt;/ol&gt;&lt;p&gt;&lt;/p&gt;&lt;p style=&quot;margin-top: 0px;&quot;&gt;&lt;br&gt;&lt;/p&gt;" style="text;html=1;whiteSpace=wrap;overflow=hidden;rounded=0;" vertex="1" parent="WIyWlLk6GJQsqaUBKTNV-1">
          <mxGeometry x="550" y="700" width="420" height="340" as="geometry" />
        </mxCell>
        <mxCell id="lytf2MHueh0BiMjzY7Cv-4" value="&lt;p style=&quot;margin: 4px 0px 0px; text-align: center; font-size: 14px;&quot;&gt;&lt;b style=&quot;&quot;&gt;&lt;font style=&quot;font-size: 14px;&quot;&gt;ResourceInfo&lt;/font&gt;&lt;/b&gt;&lt;/p&gt;&lt;hr size=&quot;1&quot; style=&quot;border-style: solid; font-size: 14px;&quot;&gt;&lt;p style=&quot;margin: 0px 0px 0px 4px; font-size: 14px;&quot;&gt;&lt;font style=&quot;font-size: 14px;&quot;&gt;+ Site: string&lt;/font&gt;&lt;/p&gt;&lt;p style=&quot;margin: 0px 0px 0px 4px; font-size: 14px;&quot;&gt;&lt;font style=&quot;font-size: 14px;&quot;&gt;&lt;span style=&quot;background-color: initial;&quot;&gt;+ Name: string&lt;/span&gt;&lt;/font&gt;&lt;/p&gt;&lt;p style=&quot;margin: 0px 0px 0px 4px; font-size: 14px;&quot;&gt;&lt;font style=&quot;font-size: 14px;&quot;&gt;&lt;span style=&quot;background-color: initial;&quot;&gt;+ Size: int&lt;/span&gt;&lt;/font&gt;&lt;/p&gt;&lt;p style=&quot;margin: 0px 0px 0px 4px; font-size: 14px;&quot;&gt;&lt;font style=&quot;font-size: 14px;&quot;&gt;+ URL: string&lt;/font&gt;&lt;/p&gt;&lt;p style=&quot;margin: 0px 0px 0px 4px; font-size: 14px;&quot;&gt;&lt;font style=&quot;font-size: 14px;&quot;&gt;+ Type: ResourceType&lt;br&gt;&lt;/font&gt;&lt;/p&gt;&lt;p style=&quot;margin: 0px 0px 0px 4px; font-size: 14px;&quot;&gt;&lt;font style=&quot;font-size: 14px;&quot;&gt;+ DownloadWith: map[string]string&lt;/font&gt;&lt;/p&gt;&lt;p style=&quot;margin: 0px 0px 0px 4px; font-size: 14px;&quot;&gt;&lt;font style=&quot;font-size: 14px;&quot;&gt;+ Others&lt;/font&gt;&lt;span style=&quot;background-color: initial;&quot;&gt;: map[string]string&lt;/span&gt;&lt;/p&gt;&lt;p style=&quot;margin: 0px 0px 0px 4px; font-size: 14px;&quot;&gt;&lt;span style=&quot;background-color: initial;&quot;&gt;+ Streams: []StreamInfo&lt;/span&gt;&lt;/p&gt;" style="verticalAlign=top;align=left;overflow=fill;html=1;whiteSpace=wrap;" vertex="1" parent="WIyWlLk6GJQsqaUBKTNV-1">
          <mxGeometry x="90" y="930" width="410" height="190" as="geometry" />
        </mxCell>
        <mxCell id="lytf2MHueh0BiMjzY7Cv-5" value="&lt;p style=&quot;margin: 4px 0px 0px; text-align: center; font-size: 14px;&quot;&gt;&lt;span style=&quot;text-align: left;&quot;&gt;&lt;b&gt;StreamInfo&lt;/b&gt;&lt;/span&gt;&lt;br&gt;&lt;/p&gt;&lt;hr size=&quot;1&quot; style=&quot;border-style: solid; font-size: 14px;&quot;&gt;&lt;p style=&quot;margin: 0px 0px 0px 4px; font-size: 14px;&quot;&gt;&lt;font style=&quot;font-size: 14px;&quot;&gt;+ Id: string&lt;br&gt;&lt;/font&gt;&lt;/p&gt;&lt;p style=&quot;margin: 0px 0px 0px 4px; font-size: 14px;&quot;&gt;&lt;font style=&quot;font-size: 14px;&quot;&gt;+ Codec: string&lt;/font&gt;&lt;/p&gt;&lt;p style=&quot;margin: 0px 0px 0px 4px; font-size: 14px;&quot;&gt;&lt;font style=&quot;font-size: 14px;&quot;&gt;+ Resolution: [2]int&lt;/font&gt;&lt;/p&gt;&lt;p style=&quot;margin: 0px 0px 0px 4px; font-size: 14px;&quot;&gt;&lt;span style=&quot;background-color: initial;&quot;&gt;+ Container: string&lt;/span&gt;&lt;/p&gt;&lt;p style=&quot;margin: 0px 0px 0px 4px; font-size: 14px;&quot;&gt;+ Size: string&lt;/p&gt;&lt;p style=&quot;margin: 0px 0px 0px 4px; font-size: 14px;&quot;&gt;+ DownloadWith: string&lt;/p&gt;&lt;p style=&quot;margin: 0px 0px 0px 4px; font-size: 14px;&quot;&gt;+ Others: map[string]string&lt;/p&gt;" style="verticalAlign=top;align=left;overflow=fill;html=1;whiteSpace=wrap;" vertex="1" parent="WIyWlLk6GJQsqaUBKTNV-1">
          <mxGeometry x="90" y="1190" width="410" height="170" as="geometry" />
        </mxCell>
        <mxCell id="lytf2MHueh0BiMjzY7Cv-6" value="&lt;p style=&quot;margin: 4px 0px 0px; text-align: center; font-size: 14px;&quot;&gt;&lt;i style=&quot;&quot;&gt;&lt;font style=&quot;font-size: 14px;&quot;&gt;ResourceType&lt;/font&gt;&lt;/i&gt;&lt;/p&gt;&lt;hr style=&quot;font-size: 14px;&quot;&gt;&lt;font style=&quot;font-size: 14px;&quot;&gt;&lt;ul&gt;&lt;li&gt;&lt;font style=&quot;font-size: 14px;&quot;&gt;File&lt;/font&gt;&lt;/li&gt;&lt;li&gt;&lt;font style=&quot;font-size: 14px;&quot;&gt;StaticHtml&lt;/font&gt;&lt;/li&gt;&lt;li&gt;&lt;font style=&quot;font-size: 14px;&quot;&gt;Text&lt;/font&gt;&lt;/li&gt;&lt;li&gt;&lt;font style=&quot;font-size: 14px;&quot;&gt;Image&lt;/font&gt;&lt;/li&gt;&lt;li&gt;&lt;font style=&quot;font-size: 14px;&quot;&gt;Audio&lt;/font&gt;&lt;/li&gt;&lt;li&gt;&lt;font style=&quot;font-size: 14px;&quot;&gt;Video&lt;/font&gt;&lt;/li&gt;&lt;li&gt;List&lt;/li&gt;&lt;/ul&gt;&lt;/font&gt;" style="verticalAlign=top;align=left;overflow=fill;html=1;whiteSpace=wrap;" vertex="1" parent="WIyWlLk6GJQsqaUBKTNV-1">
          <mxGeometry x="90" y="410" width="410" height="190" as="geometry" />
        </mxCell>
        <mxCell id="lytf2MHueh0BiMjzY7Cv-7" value="&lt;h1 style=&quot;text-align: center; margin-top: 0px;&quot;&gt;Flags&lt;/h1&gt;&lt;p&gt;&lt;font style=&quot;font-size: 16px;&quot;&gt;1a. -abcd value&lt;/font&gt;&lt;/p&gt;&lt;p&gt;&lt;font style=&quot;font-size: 16px;&quot;&gt;1b. -lvalue&lt;br&gt;&lt;/font&gt;&lt;/p&gt;&lt;p&gt;&lt;font style=&quot;font-size: 16px;&quot;&gt;2. --key value&lt;/font&gt;&lt;/p&gt;&lt;p&gt;&lt;font style=&quot;font-size: 16px;&quot;&gt;3. --key=value&lt;/font&gt;&lt;/p&gt;&lt;p&gt;&lt;span style=&quot;font-size: 16px;&quot;&gt;4. --key (bool)&lt;/span&gt;&lt;/p&gt;&lt;p&gt;&lt;br&gt;&lt;/p&gt;&lt;p&gt;&lt;font style=&quot;font-size: 16px;&quot;&gt;&lt;br&gt;&lt;/font&gt;&lt;/p&gt;" style="text;html=1;whiteSpace=wrap;overflow=hidden;rounded=0;" vertex="1" parent="WIyWlLk6GJQsqaUBKTNV-1">
          <mxGeometry x="620" y="1140" width="330" height="320" as="geometry" />
        </mxCell>
      </root>
    </mxGraphModel>
  </diagram>
</mxfile>
